<svg width="528" height="109" viewBox="0 0 528 109" fill="none" xmlns="http://www.w3.org/2000/svg">
<path d="M49.1824 108.717H13.8062L49.1824 55.2211H84.5586L49.1824 108.717Z" fill="#4DABF7"/>
<path d="M36.239 0H72.4781L36.239 55.2214H0L36.239 0Z" fill="#1C7ED6"/>
<path d="M116.671 77.2264C113.116 77.2264 109.686 76.7924 106.379 75.9244C103.114 75.0151 100.448 73.8577 98.3811 72.4524L102.411 63.4004C104.354 64.6404 106.586 65.6737 109.107 66.5004C111.67 67.2857 114.212 67.6784 116.733 67.6784C118.428 67.6784 119.792 67.5337 120.825 67.2444C121.858 66.9137 122.602 66.5004 123.057 66.0044C123.553 65.4671 123.801 64.8471 123.801 64.1444C123.801 63.1524 123.346 62.3671 122.437 61.7884C121.528 61.2097 120.35 60.7344 118.903 60.3624C117.456 59.9904 115.844 59.6184 114.067 59.2464C112.331 58.8744 110.574 58.3991 108.797 57.8204C107.061 57.2417 105.47 56.4977 104.023 55.5884C102.576 54.6377 101.398 53.4184 100.489 51.9304C99.5798 50.4011 99.1251 48.4791 99.1251 46.1644C99.1251 43.5604 99.8278 41.2044 101.233 39.0964C102.68 36.9884 104.829 35.2937 107.681 34.0124C110.533 32.7311 114.088 32.0904 118.345 32.0904C121.197 32.0904 123.987 32.4211 126.715 33.0824C129.484 33.7024 131.944 34.6324 134.093 35.8724L130.311 44.9864C128.244 43.8704 126.198 43.0437 124.173 42.5064C122.148 41.9277 120.184 41.6384 118.283 41.6384C116.588 41.6384 115.224 41.8244 114.191 42.1964C113.158 42.5271 112.414 42.9817 111.959 43.5604C111.504 44.1391 111.277 44.8004 111.277 45.5444C111.277 46.4951 111.711 47.2597 112.579 47.8384C113.488 48.3757 114.666 48.8304 116.113 49.2024C117.601 49.5331 119.213 49.8844 120.949 50.2564C122.726 50.6284 124.483 51.1037 126.219 51.6824C127.996 52.2197 129.608 52.9637 131.055 53.9144C132.502 54.8237 133.659 56.0431 134.527 57.5724C135.436 59.0604 135.891 60.9411 135.891 63.2144C135.891 65.7357 135.168 68.0711 133.721 70.2204C132.316 72.3284 130.187 74.0231 127.335 75.3044C124.524 76.5857 120.97 77.2264 116.671 77.2264ZM157.868 76.9164C154.189 76.9164 150.924 76.1724 148.072 74.6844C145.22 73.1964 142.967 71.1504 141.314 68.5464C139.702 65.9011 138.896 62.8837 138.896 59.4944C138.896 56.1051 139.702 53.1084 141.314 50.5044C142.967 47.9004 145.22 45.8751 148.072 44.4284C150.924 42.9404 154.189 42.1964 157.868 42.1964C161.546 42.1964 164.812 42.9404 167.664 44.4284C170.557 45.8751 172.81 47.9004 174.422 50.5044C176.034 53.1084 176.84 56.1051 176.84 59.4944C176.84 62.8837 176.034 65.9011 174.422 68.5464C172.81 71.1504 170.557 73.1964 167.664 74.6844C164.812 76.1724 161.546 76.9164 157.868 76.9164ZM157.868 67.5544C159.232 67.5544 160.43 67.2444 161.464 66.6244C162.538 66.0044 163.386 65.0951 164.006 63.8964C164.626 62.6564 164.936 61.1891 164.936 59.4944C164.936 57.7997 164.626 56.3737 164.006 55.2164C163.386 54.0177 162.538 53.1084 161.464 52.4884C160.43 51.8684 159.232 51.5584 157.868 51.5584C156.545 51.5584 155.346 51.8684 154.272 52.4884C153.238 53.1084 152.391 54.0177 151.73 55.2164C151.11 56.3737 150.8 57.7997 150.8 59.4944C150.8 61.1891 151.11 62.6564 151.73 63.8964C152.391 65.0951 153.238 66.0044 154.272 66.6244C155.346 67.2444 156.545 67.5544 157.868 67.5544ZM199.471 76.9164C195.751 76.9164 192.423 76.1724 189.489 74.6844C186.595 73.1964 184.322 71.1504 182.669 68.5464C181.015 65.9011 180.189 62.8837 180.189 59.4944C180.189 56.1051 181.015 53.1084 182.669 50.5044C184.322 47.9004 186.595 45.8751 189.489 44.4284C192.423 42.9404 195.751 42.1964 199.471 42.1964C203.273 42.1964 206.559 43.0024 209.329 44.6144C212.098 46.2264 214.061 48.4997 215.219 51.4344L206.105 56.0844C205.319 54.5137 204.348 53.3771 203.191 52.6744C202.033 51.9304 200.773 51.5584 199.409 51.5584C198.045 51.5584 196.805 51.8684 195.689 52.4884C194.573 53.1084 193.684 54.0177 193.023 55.2164C192.403 56.3737 192.093 57.7997 192.093 59.4944C192.093 61.2304 192.403 62.6977 193.023 63.8964C193.684 65.0951 194.573 66.0044 195.689 66.6244C196.805 67.2444 198.045 67.5544 199.409 67.5544C200.773 67.5544 202.033 67.2031 203.191 66.5004C204.348 65.7564 205.319 64.5991 206.105 63.0284L215.219 67.6784C214.061 70.6131 212.098 72.8864 209.329 74.4984C206.559 76.1104 203.273 76.9164 199.471 76.9164ZM219.533 76.3584V42.7544H231.313V76.3584H219.533ZM225.423 39.0344C223.274 39.0344 221.538 38.4351 220.215 37.2364C218.892 36.0377 218.231 34.5497 218.231 32.7724C218.231 30.9951 218.892 29.5071 220.215 28.3084C221.538 27.1097 223.274 26.5104 225.423 26.5104C227.572 26.5104 229.308 27.0891 230.631 28.2464C231.954 29.3624 232.615 30.8091 232.615 32.5864C232.615 34.4464 231.954 35.9964 230.631 37.2364C229.35 38.4351 227.614 39.0344 225.423 39.0344ZM259.491 76.3584V70.0964L258.685 68.5464V57.0144C258.685 55.1544 258.106 53.7284 256.949 52.7364C255.833 51.7031 254.035 51.1864 251.555 51.1864C249.943 51.1864 248.31 51.4551 246.657 51.9924C245.003 52.4884 243.598 53.1911 242.441 54.1004L238.473 46.1024C240.374 44.8624 242.647 43.9117 245.293 43.2504C247.979 42.5477 250.645 42.1964 253.291 42.1964C258.747 42.1964 262.963 43.4571 265.939 45.9784C268.956 48.4584 270.465 52.3644 270.465 57.6964V76.3584H259.491ZM249.571 76.9164C246.884 76.9164 244.611 76.4617 242.751 75.5524C240.891 74.6431 239.465 73.4031 238.473 71.8324C237.522 70.2617 237.047 68.5051 237.047 66.5624C237.047 64.4957 237.563 62.7184 238.597 61.2304C239.671 59.7011 241.304 58.5437 243.495 57.7584C245.685 56.9317 248.517 56.5184 251.989 56.5184H259.925V62.6564H253.601C251.699 62.6564 250.356 62.9664 249.571 63.5864C248.827 64.2064 248.455 65.0331 248.455 66.0664C248.455 67.0997 248.847 67.9264 249.633 68.5464C250.418 69.1664 251.493 69.4764 252.857 69.4764C254.138 69.4764 255.295 69.1664 256.329 68.5464C257.403 67.8851 258.189 66.8931 258.685 65.5704L260.297 69.9104C259.677 72.2251 258.457 73.9817 256.639 75.1804C254.861 76.3377 252.505 76.9164 249.571 76.9164ZM277.9 76.3584V30.3544H289.68V76.3584H277.9ZM313.146 77.2264C309.591 77.2264 306.16 76.7924 302.854 75.9244C299.588 75.0151 296.922 73.8577 294.856 72.4524L298.886 63.4004C300.828 64.6404 303.06 65.6737 305.582 66.5004C308.144 67.2857 310.686 67.6784 313.208 67.6784C314.902 67.6784 316.266 67.5337 317.3 67.2444C318.333 66.9137 319.077 66.5004 319.532 66.0044C320.028 65.4671 320.276 64.8471 320.276 64.1444C320.276 63.1524 319.821 62.3671 318.912 61.7884C318.002 61.2097 316.824 60.7344 315.378 60.3624C313.931 59.9904 312.319 59.6184 310.542 59.2464C308.806 58.8744 307.049 58.3991 305.272 57.8204C303.536 57.2417 301.944 56.4977 300.498 55.5884C299.051 54.6377 297.873 53.4184 296.964 51.9304C296.054 50.4011 295.6 48.4791 295.6 46.1644C295.6 43.5604 296.302 41.2044 297.708 39.0964C299.154 36.9884 301.304 35.2937 304.156 34.0124C307.008 32.7311 310.562 32.0904 314.82 32.0904C317.672 32.0904 320.462 32.4211 323.19 33.0824C325.959 33.7024 328.418 34.6324 330.568 35.8724L326.786 44.9864C324.719 43.8704 322.673 43.0437 320.648 42.5064C318.622 41.9277 316.659 41.6384 314.758 41.6384C313.063 41.6384 311.699 41.8244 310.666 42.1964C309.632 42.5271 308.888 42.9817 308.434 43.5604C307.979 44.1391 307.752 44.8004 307.752 45.5444C307.752 46.4951 308.186 47.2597 309.054 47.8384C309.963 48.3757 311.141 48.8304 312.588 49.2024C314.076 49.5331 315.688 49.8844 317.424 50.2564C319.201 50.6284 320.958 51.1037 322.694 51.6824C324.471 52.2197 326.083 52.9637 327.53 53.9144C328.976 54.8237 330.134 56.0431 331.002 57.5724C331.911 59.0604 332.366 60.9411 332.366 63.2144C332.366 65.7357 331.642 68.0711 330.196 70.2204C328.79 72.3284 326.662 74.0231 323.81 75.3044C320.999 76.5857 317.444 77.2264 313.146 77.2264ZM358.62 76.9164C355.768 76.9164 353.33 76.2964 351.304 75.0564C349.279 73.7751 347.729 71.8737 346.654 69.3524C345.621 66.7897 345.104 63.5244 345.104 59.5564C345.104 55.5471 345.6 52.2817 346.592 49.7604C347.584 47.1977 349.072 45.2964 351.056 44.0564C353.082 42.8164 355.603 42.1964 358.62 42.1964C361.679 42.1964 364.448 42.9197 366.928 44.3664C369.45 45.7717 371.434 47.7764 372.88 50.3804C374.368 52.9431 375.112 56.0017 375.112 59.5564C375.112 63.1111 374.368 66.1904 372.88 68.7944C371.434 71.3984 369.45 73.4031 366.928 74.8084C364.448 76.2137 361.679 76.9164 358.62 76.9164ZM337.478 88.3864V42.7544H348.7V48.4584L348.638 59.5564L349.258 70.7164V88.3864H337.478ZM356.14 67.5544C357.463 67.5544 358.641 67.2444 359.674 66.6244C360.749 66.0044 361.596 65.0951 362.216 63.8964C362.878 62.6977 363.208 61.2511 363.208 59.5564C363.208 57.8617 362.878 56.4151 362.216 55.2164C361.596 54.0177 360.749 53.1084 359.674 52.4884C358.641 51.8684 357.463 51.5584 356.14 51.5584C354.818 51.5584 353.619 51.8684 352.544 52.4884C351.511 53.1084 350.664 54.0177 350.002 55.2164C349.382 56.4151 349.072 57.8617 349.072 59.5564C349.072 61.2511 349.382 62.6977 350.002 63.8964C350.664 65.0951 351.511 66.0044 352.544 66.6244C353.619 67.2444 354.818 67.5544 356.14 67.5544ZM402.474 42.1964C405.078 42.1964 407.434 42.7337 409.542 43.8084C411.65 44.8417 413.303 46.4537 414.502 48.6444C415.742 50.8351 416.362 53.6664 416.362 57.1384V76.3584H404.582V59.0604C404.582 56.6631 404.086 54.9271 403.094 53.8524C402.143 52.7364 400.8 52.1784 399.064 52.1784C397.824 52.1784 396.687 52.4677 395.654 53.0464C394.62 53.5837 393.814 54.4311 393.236 55.5884C392.657 56.7457 392.368 58.2544 392.368 60.1144V76.3584H380.588V30.3544H392.368V52.3024L389.64 49.5124C390.921 47.0737 392.678 45.2551 394.91 44.0564C397.142 42.8164 399.663 42.1964 402.474 42.1964ZM441.789 76.9164C437.821 76.9164 434.349 76.1724 431.373 74.6844C428.439 73.1551 426.145 71.0884 424.491 68.4844C422.879 65.8391 422.073 62.8424 422.073 59.4944C422.073 56.1464 422.859 53.1704 424.429 50.5664C426.041 47.9211 428.253 45.8751 431.063 44.4284C433.874 42.9404 437.036 42.1964 440.549 42.1964C443.856 42.1964 446.873 42.8784 449.601 44.2424C452.329 45.5651 454.499 47.5284 456.111 50.1324C457.723 52.7364 458.529 55.8984 458.529 59.6184C458.529 60.0317 458.509 60.5071 458.467 61.0444C458.426 61.5817 458.385 62.0777 458.343 62.5324H431.745V56.3324H452.081L447.617 58.0684C447.659 56.5391 447.369 55.2164 446.749 54.1004C446.171 52.9844 445.344 52.1164 444.269 51.4964C443.236 50.8764 442.017 50.5664 440.611 50.5664C439.206 50.5664 437.966 50.8764 436.891 51.4964C435.858 52.1164 435.052 53.0051 434.473 54.1624C433.895 55.2784 433.605 56.6011 433.605 58.1304V59.9284C433.605 61.5817 433.936 63.0077 434.597 64.2064C435.3 65.4051 436.292 66.3351 437.573 66.9964C438.855 67.6164 440.384 67.9264 442.161 67.9264C443.815 67.9264 445.22 67.6991 446.377 67.2444C447.576 66.7484 448.754 66.0044 449.911 65.0124L456.111 71.4604C454.499 73.2377 452.515 74.6017 450.159 75.5524C447.803 76.4617 445.013 76.9164 441.789 76.9164ZM463.961 76.3584V42.7544H475.183V52.5504L473.509 49.7604C474.501 47.2391 476.113 45.3584 478.345 44.1184C480.577 42.8371 483.284 42.1964 486.467 42.1964V52.7984C485.929 52.7157 485.454 52.6744 485.041 52.6744C484.669 52.6331 484.255 52.6124 483.801 52.6124C481.403 52.6124 479.461 53.2737 477.973 54.5964C476.485 55.8777 475.741 57.9857 475.741 60.9204V76.3584H463.961ZM508.633 76.9164C504.665 76.9164 501.193 76.1724 498.217 74.6844C495.282 73.1551 492.988 71.0884 491.335 68.4844C489.723 65.8391 488.917 62.8424 488.917 59.4944C488.917 56.1464 489.702 53.1704 491.273 50.5664C492.885 47.9211 495.096 45.8751 497.907 44.4284C500.718 42.9404 503.88 42.1964 507.393 42.1964C510.7 42.1964 513.717 42.8784 516.445 44.2424C519.173 45.5651 521.343 47.5284 522.955 50.1324C524.567 52.7364 525.373 55.8984 525.373 59.6184C525.373 60.0317 525.352 60.5071 525.311 61.0444C525.27 61.5817 525.228 62.0777 525.187 62.5324H498.589V56.3324H518.925L514.461 58.0684C514.502 56.5391 514.213 55.2164 513.593 54.1004C513.014 52.9844 512.188 52.1164 511.113 51.4964C510.08 50.8764 508.86 50.5664 507.455 50.5664C506.05 50.5664 504.81 50.8764 503.735 51.4964C502.702 52.1164 501.896 53.0051 501.317 54.1624C500.738 55.2784 500.449 56.6011 500.449 58.1304V59.9284C500.449 61.5817 500.78 63.0077 501.441 64.2064C502.144 65.4051 503.136 66.3351 504.417 66.9964C505.698 67.6164 507.228 67.9264 509.005 67.9264C510.658 67.9264 512.064 67.6991 513.221 67.2444C514.42 66.7484 515.598 66.0044 516.755 65.0124L522.955 71.4604C521.343 73.2377 519.359 74.6017 517.003 75.5524C514.647 76.4617 511.857 76.9164 508.633 76.9164Z" fill="#1C7ED6"/>
</svg>
